<svg width="1205" height="863" viewBox="0 0 1205 863" version="1.1" xmlns="http://www.w3.org/2000/svg" xmlns:xlink="http://www.w3.org/1999/xlink">
<title>Bridge Logo Final</title>
<desc>Created using Figma</desc>
<g id="Canvas" transform="translate(11678 -2294)">
<g id="Bridge Logo Final">
<g id="Group">
<g id="Vector">
<use xlink:href="#path0_fill" transform="translate(-11678 2779.01)" fill="#000C9E"/>
</g>
<g id="Vector">
<use xlink:href="#path1_fill" transform="translate(-11431.9 2866.65)" fill="#000C9E"/>
</g>
<g id="Vector">
<use xlink:href="#path2_fill" transform="translate(-11265.5 2780)" fill="#000C9E"/>
</g>
<g id="Vector">
<use xlink:href="#path3_fill" transform="translate(-11155.9 2780)" fill="#000C9E"/>
</g>
<g id="Vector">
<use xlink:href="#path4_fill" transform="translate(-10909.8 2867.64)" fill="#000C9E"/>
</g>
<g id="Vector">
<use xlink:href="#path5_fill" transform="translate(-10664.7 2867.64)" fill="#000C9E"/>
</g>
</g>
<g id="Group">
<g id="Vector">
<use xlink:href="#path6_fill" transform="translate(-11479.7 2295)" fill="#65B8DE"/>
</g>
<g id="Vector">
<use xlink:href="#path7_fill" transform="translate(-10818.1 2294)" fill="#000C9E"/>
</g>
<g id="Vector">
<use xlink:href="#path8_fill" transform="translate(-11295.4 2294)" fill="#EB2C88"/>
</g>
<g id="Vector">
<use xlink:href="#path9_fill" transform="translate(-11296.4 2400.56)" fill="#08C39D"/>
</g>
</g>
</g>
</g>
<defs>
<path id="path0_fill" d="M 57.7916 297.776L 0.000121632 297.776L 0.000121632 0L 57.7916 0L 57.7916 110.546C 66.7592 99.5906 87.6838 88.6355 108.608 88.6355C 168.393 88.6355 201.274 137.435 201.274 196.193C 201.274 254.952 167.396 302.755 108.608 302.755C 86.6874 302.755 65.7628 291.8 57.7916 280.845C 57.7916 280.845 57.7916 297.776 57.7916 297.776ZM 57.7916 229.058C 64.7664 243.001 79.7126 252.96 95.6551 252.96C 126.544 252.96 144.479 228.062 144.479 195.197C 144.479 162.333 126.544 137.435 95.6551 137.435C 79.7126 137.435 63.77 147.394 57.7916 161.337L 57.7916 229.058Z"/>
<path id="path1_fill" d="M 125.547 61.7461C 117.576 56.7666 107.612 54.7748 96.6515 54.7748C 77.7198 54.7748 61.7773 64.7338 56.7952 83.656L 56.7952 210.136L -6.08158e-05 210.136L -6.08158e-05 4.97956L 56.7952 4.97956L 56.7952 24.8977C 65.7629 9.95908 82.7017 3.03926e-05 102.63 3.03926e-05C 112.594 3.03926e-05 120.565 1.99187 124.551 2.98778L 125.547 61.7461Z"/>
<path id="path2_fill" d="M 33.8778 65.7297C 15.9425 65.7297 6.08158e-05 52.783 6.08158e-05 32.8649C 6.08158e-05 14.9386 14.9461 -1.51963e-05 33.8778 -1.51963e-05C 51.8131 -1.51963e-05 67.7556 12.9468 67.7556 32.8649C 66.7592 52.783 50.8167 65.7297 33.8778 65.7297ZM 61.7772 296.78L 4.98209 296.78L 4.98209 92.6191L 61.7772 92.6191L 61.7772 296.78Z"/>
<path id="path3_fill" d="M 143.483 279.849C 134.515 290.804 113.59 301.759 92.6657 301.759C 32.8814 301.759 6.08158e-05 253.956 6.08158e-05 195.197C 6.08158e-05 136.439 33.8778 87.6396 92.6657 87.6396C 114.587 87.6396 135.511 98.5947 143.483 109.55L 143.483 -1.51963e-05L 201.274 -1.51963e-05L 201.274 297.776L 143.483 297.776L 143.483 279.849ZM 143.483 161.337C 136.508 148.39 121.562 137.435 105.619 137.435C 74.7305 137.435 56.7952 162.332 56.7952 195.197C 56.7952 228.062 74.7305 252.96 105.619 252.96C 122.558 252.96 137.504 243.001 143.483 229.058L 143.483 161.337Z"/>
<path id="path4_fill" d="M 142.486 184.242C 133.519 195.197 114.587 205.156 92.6659 205.156C 32.8815 205.156 3.04079e-05 157.353 3.04079e-05 102.578C 3.04079e-05 47.8034 33.8779 -6.07852e-05 92.6659 -6.07852e-05C 115.583 -6.07852e-05 133.519 9.95899 142.486 19.918L 142.486 3.98365L 199.281 3.98365L 199.281 186.234C 199.281 255.948 156.436 288.812 98.6442 288.812C 45.8347 288.812 8.96772 261.923 2.98928 216.111L 57.7916 216.111C 62.7737 235.034 75.727 244.993 97.6479 244.993C 126.544 244.993 141.49 228.062 141.49 195.197L 142.486 184.242ZM 142.486 68.7175C 135.511 56.7666 120.565 47.8034 104.623 47.8034C 73.7341 47.8034 56.7952 70.7092 56.7952 102.578C 56.7952 134.447 74.7305 157.353 104.623 157.353C 121.562 157.353 136.508 147.394 142.486 135.443L 142.486 68.7175Z"/>
<path id="path5_fill" d="M 190.314 142.414C 182.342 185.238 150.457 214.12 99.6406 214.12C 39.8562 214.12 -6.08158e-05 171.296 -6.08158e-05 107.558C -6.08158e-05 44.8157 40.8527 -6.07852e-05 98.6443 -6.07852e-05C 159.425 -6.07852e-05 191.31 40.8322 191.31 101.582L 191.31 118.513L 54.8023 118.513C 56.7951 149.386 73.7341 167.312 98.6443 167.312C 117.576 167.312 132.522 159.345 136.508 141.419L 190.314 142.414ZM 56.7952 84.6519L 135.511 84.6519C 135.511 62.742 122.558 46.8076 98.6443 46.8076C 76.7233 46.8076 60.7809 59.7543 56.7952 84.6519Z"/>
<path id="path6_fill" d="M 85.6909 302.755C 85.6909 311.718 90.6731 316.698 99.6407 316.698L 146.472 316.698L 146.472 359.522L 99.6407 359.522C 62.7737 359.522 36.8671 335.62 36.8671 298.772L 36.8671 214.12C 36.8671 205.156 31.8849 200.177 22.9173 200.177L 6.08158e-05 200.177L 6.08158e-05 156.357L 23.9138 156.357C 32.8814 156.357 37.8634 151.378 37.8634 142.414L 37.8634 60.7502C 37.8634 22.9058 63.77 1.51963e-05 100.637 1.51963e-05L 146.472 1.51963e-05L 146.472 42.8239L 99.6407 42.8239C 90.6731 42.8239 85.6909 47.8034 85.6909 56.7666L 85.6909 137.435C 85.6909 158.349 75.7268 169.304 62.7736 177.271C 75.7268 185.238 85.6909 196.193 85.6909 217.107L 85.6909 302.755Z"/>
<path id="path7_fill" d="M 60.7809 217.107C 60.7809 196.193 70.7448 185.238 83.6981 177.271C 70.7448 169.304 60.7809 158.349 60.7809 137.435L 60.7809 55.7707C 60.7809 46.8076 55.7987 41.828 46.8311 41.828L 0 41.828L 0 3.03926e-05L 45.8348 3.03926e-05C 82.7018 3.03926e-05 108.608 23.9017 108.608 60.7502L 108.608 140.423C 108.608 149.386 113.59 154.365 122.558 154.365L 146.472 154.365L 146.472 199.181L 122.558 199.181C 113.59 199.181 108.608 204.161 108.608 213.124L 108.608 297.776C 108.608 335.62 82.7018 358.526 45.8348 358.526L 0 358.526L 0 315.702L 46.8311 315.702C 55.7987 315.702 60.7809 310.722 60.7809 301.759L 60.7809 217.107Z"/>
<path id="path8_fill" d="M 220.206 0L 0 0L 0 41.828L 220.206 41.828L 439.415 41.828L 439.415 0L 220.206 0Z"/>
<path id="path9_fill" d="M 374.649 210.136L 374.649 150.382C 374.649 65.7297 307.89 0 222.199 0L 220.206 0L 218.213 0C 132.522 0 65.7629 65.7297 65.7629 150.382L 65.7629 210.136L 0 210.136L 0 252.96L 107.612 252.96L 107.612 151.378C 107.612 90.6273 156.436 42.824 218.213 42.824L 220.206 42.824L 222.199 42.824C 283.976 42.824 332.8 90.6273 332.8 151.378L 332.8 252.96L 440.412 252.96L 440.412 210.136L 374.649 210.136Z"/>
</defs>
</svg>
